<svg width="34" height="24" viewBox="0 0 34 24" fill="none" xmlns="http://www.w3.org/2000/svg">
<g clip-path="url(#clip0_17_3)">
<path d="M17.088 15.708C16.5653 17.6307 15.5853 19.04 14.148 19.936C12.7293 20.832 11.068 21.28 9.164 21.28C7.33467 21.28 5.748 20.9067 4.404 20.16C3.07867 19.3947 2.052 18.3027 1.324 16.884C0.614667 15.4467 0.26 13.7387 0.26 11.76C0.26 9.76267 0.614667 8.05467 1.324 6.636C2.052 5.21733 3.07867 4.13467 4.404 3.388C5.748 2.62267 7.32533 2.24 9.136 2.24C10.3867 2.24 11.544 2.42667 12.608 2.8C13.672 3.15467 14.568 3.70533 15.296 4.452C16.0427 5.19867 16.5653 6.16 16.864 7.336L12.636 9.044C12.3933 7.88667 11.9827 7.09333 11.404 6.664C10.844 6.23467 10.144 6.02 9.304 6.02C8.44533 6.02 7.708 6.23467 7.092 6.664C6.476 7.09333 6 7.73733 5.664 8.596C5.34667 9.436 5.188 10.4907 5.188 11.76C5.188 13.0107 5.33733 14.0653 5.636 14.924C5.95333 15.764 6.42 16.408 7.036 16.856C7.652 17.2853 8.41733 17.5 9.332 17.5C10.172 17.5 10.8907 17.2573 11.488 16.772C12.104 16.268 12.5147 15.5027 12.72 14.476L17.088 15.708ZM34.3905 2.52L28.0065 21H22.3505L15.9385 2.52H21.0065L24.2545 13.692L25.2345 17.332L26.1865 13.748L29.4905 2.52H34.3905Z" fill="#FF652F"/>
</g>
<defs>
<clipPath id="clip0_17_3">
<rect width="34" height="24" fill="white"/>
</clipPath>
</defs>
</svg>
